<svg width="32" height="32" viewBox="0 0 32 32" fill="none" xmlns="http://www.w3.org/2000/svg">
<rect width="32" height="32" rx="16" fill="white"/>
<mask id="mask0_533_16190" style="mask-type:alpha" maskUnits="userSpaceOnUse" x="8" y="8" width="16" height="16">
<rect x="8" y="8" width="16" height="16" fill="#D9D9D9"/>
</mask>
<g mask="url(#mask0_533_16190)">
<path d="M15.1901 20.8283L14.226 19.9513C13.0439 18.8736 11.9886 17.8148 11.0599 16.7751C10.1313 15.7353 9.66699 14.6214 9.66699 13.4334C9.66699 12.4873 9.98601 11.6952 10.624 11.0571C11.2621 10.4191 12.0542 10.1001 13.0003 10.1001C13.5379 10.1001 14.0689 10.224 14.5933 10.4719C15.1176 10.7198 15.5866 11.1223 16.0003 11.6796C16.414 11.1223 16.883 10.7198 17.4074 10.4719C17.9317 10.224 18.4627 10.1001 19.0003 10.1001C19.9465 10.1001 20.7385 10.4191 21.3766 11.0571C22.0146 11.6952 22.3336 12.4873 22.3336 13.4334C22.3336 14.6343 21.8614 15.7605 20.917 16.8122C19.9725 17.864 18.9195 18.9137 17.758 19.9616L16.8106 20.8218C16.5806 21.0364 16.3106 21.1447 16.0003 21.1468C15.6901 21.149 15.42 21.0428 15.1901 20.8283ZM15.5208 12.6924C15.1601 12.1428 14.7804 11.74 14.3817 11.4841C13.983 11.2281 13.5225 11.1001 13.0003 11.1001C12.3336 11.1001 11.7781 11.3223 11.3336 11.7667C10.8892 12.2112 10.667 12.7667 10.667 13.4334C10.667 13.9685 10.8394 14.5279 11.1843 15.1116C11.5291 15.6954 11.962 16.2757 12.483 16.8526C13.0039 17.4295 13.5682 17.9932 14.1759 18.5436C14.7836 19.0941 15.3469 19.6056 15.8657 20.0783C15.9041 20.1125 15.949 20.1296 16.0003 20.1296C16.0516 20.1296 16.0965 20.1125 16.1349 20.0783C16.6538 19.6056 17.217 19.0941 17.8247 18.5436C18.4324 17.9932 18.9967 17.4295 19.5176 16.8526C20.0386 16.2757 20.4715 15.6954 20.8163 15.1116C21.1612 14.5279 21.3336 13.9685 21.3336 13.4334C21.3336 12.7667 21.1114 12.2112 20.667 11.7667C20.2225 11.3223 19.667 11.1001 19.0003 11.1001C18.4781 11.1001 18.0176 11.2281 17.6189 11.4841C17.2202 11.74 16.8405 12.1428 16.4798 12.6924C16.4234 12.7779 16.3524 12.842 16.267 12.8847C16.1815 12.9274 16.0926 12.9488 16.0003 12.9488C15.908 12.9488 15.8191 12.9274 15.7336 12.8847C15.6482 12.842 15.5772 12.7779 15.5208 12.6924Z" fill="#000"/>
</g>
</svg>
