<svg width="32" height="32" viewBox="0 0 32 32" fill="none" xmlns="http://www.w3.org/2000/svg">
<rect width="32" height="32" rx="16" fill="#FFF0F0"/>
<mask id="mask0_533_17405" style="mask-type:alpha" maskUnits="userSpaceOnUse" x="8" y="8" width="16" height="16">
<rect x="8" y="8" width="16" height="16" fill="#D9D9D9"/>
</mask>
<g mask="url(#mask0_533_17405)">
<path d="M15.9934 21.1398C15.8507 21.1398 15.7073 21.1142 15.5633 21.0629C15.4193 21.0116 15.2926 20.9312 15.1832 20.8218L14.2255 19.9513C13.0434 18.8736 11.9881 17.8148 11.0595 16.7751C10.1308 15.7353 9.6665 14.6214 9.6665 13.4334C9.6665 12.4873 9.98552 11.6952 10.6236 11.0571C11.2616 10.4191 12.0537 10.1001 12.9998 10.1001C13.5374 10.1001 14.0684 10.224 14.5928 10.4719C15.1171 10.7198 15.5861 11.1223 15.9998 11.6796C16.4135 11.1223 16.8825 10.7198 17.4069 10.4719C17.9312 10.224 18.4622 10.1001 18.9998 10.1001C19.946 10.1001 20.7381 10.4191 21.3761 11.0571C22.0141 11.6952 22.3331 12.4873 22.3331 13.4334C22.3331 14.6343 21.8609 15.7605 20.9165 16.8122C19.972 17.864 18.919 18.9137 17.7575 19.9616L16.8101 20.8218C16.7007 20.9312 16.5729 21.0116 16.4267 21.0629C16.2806 21.1142 16.1361 21.1398 15.9934 21.1398Z" fill="#ffffff"/>
</g>
</svg>
